<?xml version="1.0" encoding="UTF-8" standalone="no"?><!DOCTYPE svg PUBLIC "-//W3C//DTD SVG 1.1//EN" "http://www.w3.org/Graphics/SVG/1.1/DTD/svg11.dtd"><svg width="100%" height="100%" viewBox="0 0 320 320" version="1.1" xmlns="http://www.w3.org/2000/svg" xmlns:xlink="http://www.w3.org/1999/xlink" xml:space="preserve" xmlns:serif="http://www.serif.com/" style="fill-rule:evenodd;clip-rule:evenodd;stroke-linejoin:round;stroke-miterlimit:2;"><path d="M155.905,62.361c3.343,-0.269 8.22,-0.033 11.626,0.069c17.761,0.533 36.131,6.116 50.048,17.568c6.141,-5.706 12.891,-10.568 20.707,-13.725c13.113,-5.268 27.793,-5.046 40.74,0.617c12.58,5.381 23.203,16.452 28.489,29.051c5.97,14.228 3.461,28.666 -6.079,40.624c-6.523,8.178 -13.711,16.722 -16.905,26.849c-1.993,6.521 -3.004,13.015 -5.699,19.327c-5.254,12.309 -16.314,19.05 -29.686,17.615c-5.592,-0.6 -8.866,-1.952 -13.96,-4.188c-5.292,5.486 -7.046,6.87 -13.187,11.336c5.018,14.661 6.866,32.102 7.252,47.562c0.157,6.289 0.884,14.353 -7.577,15.377c-5.137,0.621 -10.81,0.386 -16.04,0.424l-38.344,-0.031l-46.798,-0.041c-6.418,-0.018 -14.574,0.353 -20.893,-0.567c-1.612,-0.234 -4.401,-1.955 -5.2,-3.466c-1.493,-2.823 -1.211,-7.404 -1.216,-10.558c-0.018,-11.809 1.407,-23.872 3.805,-35.422c0.932,-4.486 2.291,-8.656 3.517,-13.04c-1.654,-1.42 -4.176,-3.011 -5.972,-4.416c-2.844,-2.226 -4.871,-4.218 -7.294,-6.873c-13.107,5.678 -26.629,6.652 -37.633,-4.065c-9.954,-9.694 -8.897,-24.87 -15.099,-36.543c-5.761,-10.844 -14.793,-18.139 -19.974,-29.457c-2.166,-4.82 -3.259,-10.054 -3.205,-15.338c0.103,-12.418 6.77,-24.745 15.482,-33.298c10.021,-10.035 23.694,-15.56 37.873,-15.303c14.495,0.146 29.763,7.186 39.839,17.471c16.396,-12.103 31.185,-16.68 51.384,-17.561l-0.001,0.002Z" style="fill:#3b3b3c;fill-rule:nonzero;"/><path d="M155.182,67.859c15.35,-0.779 30.868,0.983 45.272,7.88c36.316,17.389 47.899,62.48 39.499,99.192c-3.034,13.261 -12.198,22.1 -23.344,29.209c-1.847,-1.842 -3.765,-3.043 -6.33,-3.673c-1.985,-0.475 -4.054,-0.468 -6.036,0.021c-7.916,1.996 -6.08,9.687 -9.177,11.339c-0.64,0.342 -1.605,0.467 -2.283,0.21c-5.693,-2.16 -2.03,-22.694 -3.692,-26.523c-0.284,-0.656 -0.758,-1.202 -1.457,-1.423c-0.677,-0.214 -1.539,-0.11 -2.149,0.249c-0.938,0.551 -1.358,1.567 -1.607,2.577c-0.472,1.924 -0.29,4.293 -0.304,6.29c-0.047,6.597 -0.508,14.896 3.121,20.686c1.285,2.051 3.166,3.591 5.563,4.105c1.661,0.355 3.357,0.265 4.938,-0.378c5.909,-2.406 3.707,-8.67 7.761,-11.268c1.09,-0.699 2.372,-0.919 3.631,-0.608c1.641,0.406 2.979,1.513 3.815,2.965c1.564,2.718 0.824,6.603 0.064,9.493c-1.532,5.82 -5.5,10.644 -10.632,13.656c-10.003,4.906 -20.946,3.931 -30.299,0.144c-18.718,-7.579 -27.688,-25.341 -32.4,-43.745c-0.779,-2.091 -4.992,-1.504 -5.047,0.548c-0.209,7.788 5.554,19.083 9.01,25.387c-34.489,-3.5 -61.567,-16.167 -63.345,-54.86c-1.289,-28.044 5.776,-55.587 27.976,-74.556c13.506,-11.541 30.215,-15.911 47.452,-16.917Z" style="fill:#cec2b4;fill-rule:nonzero;"/><path d="M201.908,152.768c5.087,-0.826 9.879,2.634 10.695,7.722c0.817,5.089 -2.652,9.874 -7.742,10.681c-5.077,0.805 -9.847,-2.653 -10.661,-7.728c-0.814,-5.075 2.634,-9.851 7.708,-10.675Z" style="fill:#3b3b3c;fill-rule:nonzero;"/><path d="M117.58,152.983c5.005,-1.224 10.052,1.854 11.253,6.865c1.202,5.011 -1.9,10.044 -6.917,11.222c-4.983,1.171 -9.976,-1.907 -11.17,-6.885c-1.193,-4.978 1.861,-9.985 6.834,-11.202Z" style="fill:#3b3b3c;fill-rule:nonzero;"/><path d="M105.613,210.474c13.647,6.315 26.891,8.806 41.774,9.696c3.447,4.543 5.582,6.838 9.95,10.559c5.463,4.162 11.718,7.164 18.383,8.822c10.047,2.445 21.248,2.153 30.26,-3.368c8.02,-4.914 10.715,-11.132 12.829,-19.86c0.535,3.356 1.453,7.001 2.077,10.429c0.977,5.45 1.704,10.942 2.178,16.458c0.277,2.986 1.402,18.154 -0.213,20.805c-0.903,1.48 -8.836,1.263 -11.209,1.307c1.344,-5.02 2.048,-10.494 2.272,-15.695c0.554,-3.6 -4.823,-4.873 -5.375,-1.811c-1.019,5.647 -1.607,11.762 -2.708,17.454l-21.85,0.023c0.034,-2.29 2.002,-24.473 -5.022,-18.123c-0.396,0.355 -0.666,0.829 -0.769,1.35c-0.344,1.663 -0.184,14.138 -0.194,16.882c-1.623,-0.075 -3.299,-0.088 -4.924,-0.057c-9.758,0.191 -19.613,-0.188 -29.359,0.083c0.002,-2.036 0.351,-17.037 -0.463,-17.833c-7.369,-7.199 -5.479,14.102 -5.304,17.663c-7.311,-0.023 -14.623,-0.002 -21.934,0.062c-0.847,-5.164 -1.481,-10.364 -1.942,-15.575c-0.48,-5.431 -6.285,-4.49 -5.869,0.826c0.387,4.94 1.019,9.824 2.166,14.654c-3.059,-0.029 -6.172,0.041 -9.184,-0.439c-3.232,-0.515 -2.594,-5.4 -2.507,-7.981c0.421,-12.454 1.19,-26.912 4.701,-38.942c0.536,-2.398 1.446,-5.037 2.236,-7.389Z" style="fill:#cec2b4;fill-rule:nonzero;"/><path d="M105.613,210.474c13.647,6.315 26.891,8.806 41.774,9.696c3.447,4.543 5.582,6.838 9.95,10.559c-0.227,0.186 -0.816,0.623 -1.089,0.623c-16.786,-0.032 -38.824,-5.175 -52.871,-13.489c0.536,-2.398 1.446,-5.037 2.236,-7.389Z" style="fill:#f2c9ab;fill-rule:nonzero;"/><path d="M25.291,119.057c3.619,-9.154 11.68,-17.549 20.767,-21.459c8.987,-3.808 19.116,-3.907 28.175,-0.275c4.202,1.684 7.172,3.73 10.842,6.283c-2.992,6.41 -4.691,9.956 -6.878,16.852c-1.213,4.742 -2.552,9.667 -3.159,14.53c-2.326,18.625 -2.3,40.775 8.361,56.854c-6.857,2.87 -13.451,4.668 -20.762,2.15c-15.03,-5.178 -15.737,-19.155 -19.405,-31.599c-1.03,-3.613 -2.485,-7.091 -4.333,-10.362c-3.339,-5.918 -7.632,-11.07 -11.902,-16.321c-1.967,-2.418 -3.755,-4.772 -5.169,-7.559c1.008,-3.107 2.242,-6.068 3.464,-9.095l-0.001,0.001Z" style="fill:#f2c9ab;fill-rule:nonzero;"/><path d="M25.291,119.057c3.619,-9.154 11.68,-17.549 20.767,-21.459c8.987,-3.808 19.116,-3.907 28.175,-0.275c4.202,1.684 7.172,3.73 10.842,6.283c-2.992,6.41 -4.691,9.956 -6.878,16.852c-0.254,-0.455 -1.545,-0.92 -1.989,-1.389c-9.045,-9.528 -23.04,-13.016 -35.513,-8.857c-2.192,0.731 -4.285,1.362 -6.37,2.631c-2.476,1.507 -6.278,5.74 -9.034,6.213l-0,0.001Z" style="fill:#edb391;fill-rule:nonzero;"/><path d="M259.83,94.863c21.107,-0.478 34.823,14.046 40.419,33.279c-2.191,4.322 -5.397,7.83 -8.395,11.597c-3.159,3.97 -6.252,8.05 -8.718,12.497c-2.069,3.714 -3.666,7.671 -4.754,11.78c-3.146,11.431 -3.276,19.638 -13.434,27.327c-9.154,5.765 -16.622,4.137 -26.03,0.45c5.909,-9.731 8.193,-18.657 8.992,-29.921c1.458,-20.538 -1.33,-39.562 -10.742,-58.03c5.863,-5.577 14.686,-8.464 22.662,-8.979Z" style="fill:#f2c9ab;fill-rule:nonzero;"/><path d="M60.959,67.855c14.575,-1.547 28.856,6.179 39.216,15.743c-5.049,5.328 -8.064,8.497 -11.886,14.869c-4.532,-3.522 -9.687,-6.16 -15.195,-7.777c-11.075,-3.368 -23.039,-2.133 -33.192,3.425c-11.665,6.909 -16.637,14.593 -21.904,26.78c-0.697,-4.487 -1.394,-8.043 -0.917,-12.607c0.934,-8.937 4.745,-16.254 10.49,-23.12c8.38,-9.986 20.398,-16.218 33.388,-17.314l-0,0.001Z" style="fill:#cec2b4;fill-rule:nonzero;"/><path d="M254.181,68.102c3.881,-0.747 11.658,0.333 15.5,1.394c12.692,3.524 23.45,11.972 29.883,23.466c5.043,8.928 7.188,17.48 4.415,27.445c-3.505,-9.329 -8.956,-16.8 -16.818,-22.836c-16.792,-12.254 -36.697,-10.934 -53.253,0.873c-2.003,-4.146 -8.628,-11.452 -11.729,-14.723c8.433,-8.898 19.799,-14.445 32.002,-15.618l-0,-0.001Z" style="fill:#cec2b4;fill-rule:nonzero;"/></svg>